<?xml version="1.0" encoding="utf-8"?>
<!-- Generator: Adobe Illustrator 23.0.1, SVG Export Plug-In . SVG Version: 6.00 Build 0)  -->
<svg version="1.1" id="Layer_1" xmlns="http://www.w3.org/2000/svg" xmlns:xlink="http://www.w3.org/1999/xlink" x="0px" y="0px"
	 viewBox="0 0 512 512" style="enable-background:new 0 0 512 512;" xml:space="preserve">
<style type="text/css">
	.st0{fill:#3E3EFF;}
	.st1{fill:#CC3232;}
	.st2{fill:#FCFC42;}
</style>
<path d="M239,153.6l-102.5-50.2v113.3L239,262.3V153.6z"/>
<path class="st0" d="M12.7,415.9l95.7,42.6V349.8L6,299.6v105.9C6,410,8.6,414.1,12.7,415.9L12.7,415.9z"/>
<path d="M239,293.6l-102.6,50.2v108.7L239,407V293.6z"/>
<path d="M215.8,289.2l-96.2-42.8l-96.4,42.8l96.3,47.1L215.8,289.2z"/>
<path d="M505,317.5L402.3,366v108.5l94.9-42.1c4.7-2.1,7.8-6.8,7.8-12V317.5z"/>
<path class="st1" d="M352.1,78.8l-86.7-39.2c-6.1-2.8-13-2.8-19.2-0.1l-86.3,37.6l96.1,47.1L352.1,78.8z"/>
<path d="M488.8,290.9l-96.4-44.5l-96.3,42.8l96.4,47.2L488.8,290.9z"/>
<path class="st2" d="M273,429l102.4,45.5V365.8l-102.4-50.2L273,429z"/>
<path d="M381.6,216.7V105.3l-102.7,48.5v108.5l45.4-20.2L381.6,216.7z"/>
</svg>
