<?xml version="1.0" encoding="utf-8"?>
<!-- Generator: Adobe Illustrator 23.0.1, SVG Export Plug-In . SVG Version: 6.00 Build 0)  -->
<svg version="1.1" id="Capa_1" xmlns="http://www.w3.org/2000/svg" xmlns:xlink="http://www.w3.org/1999/xlink" x="0px" y="0px"
	 viewBox="0 0 447.2 447.2" style="enable-background:new 0 0 447.2 447.2;" xml:space="preserve">
<g>
	<g>
		<path d="M192.2,26.9c-0.3,1.8-0.4,3.7-0.4,5.5v315.5l-3.2-6.9c-3.2-6.7-7.5-12.8-12.8-18.1l-88.5-88.5
			c-11.1-11.7-29-13.6-42.4-4.6c-14.3,10.4-17.4,30.5-6.9,44.7c0.8,1.2,1.8,2.2,2.8,3.3l160,160c12.5,12.5,32.8,12.5,45.3,0
			c0,0,0,0,0,0l160-160c12.5-12.5,12.5-32.8-0.1-45.3c-1-1-2-1.9-3.1-2.7c-13.4-9-31.3-7-42.4,4.6l-88.6,88.3
			c-4.7,4.7-8.6,10.1-11.7,16l-4.3,9.6V34.2c0.6-16.3-10.8-30.7-26.9-33.8C211.5-2.4,195.1,9.4,192.2,26.9z"/>
	</g>
</g>
</svg>
