<?xml version="1.0" encoding="utf-8"?>
<!-- Generator: Adobe Illustrator 23.0.1, SVG Export Plug-In . SVG Version: 6.00 Build 0)  -->
<svg version="1.1" id="Capa_1" xmlns="http://www.w3.org/2000/svg" xmlns:xlink="http://www.w3.org/1999/xlink" x="0px" y="0px"
	 viewBox="0 0 447.2 447.2" style="enable-background:new 0 0 447.2 447.2;" xml:space="preserve">
<g>
	<g>
		<path d="M255,420.4c0.3-1.8,0.4-3.7,0.4-5.5V99.3l3.2,6.9c3.2,6.7,7.5,12.8,12.8,18.1l88.5,88.5c11.1,11.7,29,13.6,42.4,4.6
			c14.3-10.4,17.4-30.5,6.9-44.7c-0.8-1.2-1.8-2.2-2.8-3.3l-160-160c-12.5-12.5-32.8-12.5-45.3,0c0,0,0,0,0,0l-160,160
			c-12.5,12.5-12.5,32.8,0.1,45.3c1,1,2,1.9,3.1,2.7c13.4,9,31.3,7,42.4-4.6l88.6-88.3c4.7-4.7,8.6-10.1,11.7-16l4.3-9.6v314.2
			c-0.6,16.3,10.8,30.7,26.9,33.8C235.7,449.7,252.2,437.8,255,420.4z"/>
	</g>
</g>
</svg>
