<?xml version="1.0" encoding="utf-8"?>
<!-- Generator: Adobe Illustrator 23.0.1, SVG Export Plug-In . SVG Version: 6.00 Build 0)  -->
<svg version="1.1" id="Layer_1" xmlns="http://www.w3.org/2000/svg" xmlns:xlink="http://www.w3.org/1999/xlink" x="0px" y="0px"
	 viewBox="0 0 20 20" style="enable-background:new 0 0 20 20;" xml:space="preserve">
<style type="text/css">
	.st0{fill:#FF2E2E;}
	.st1{fill:#FFDC83;}
	.st2{fill:#C6AD77;}
	.st3{fill:#9B875F;}
	.st4{fill:#85DAFF;}
</style>
<g>
	<rect x="4" y="11" width="1" height="9"/>
	<rect x="12" y="16" width="1" height="4"/>
	<rect x="13" y="15" width="1" height="2"/>
	<rect x="14" y="14" width="1" height="2"/>
	<rect x="16" y="9" width="1" height="2"/>
	<rect x="5" y="6" width="3" height="1"/>
	<rect x="15" y="11" width="1" height="4"/>
	<rect x="13" y="6" width="3" height="3"/>
	<rect x="8" y="6" width="3" height="3"/>
	<rect x="11" y="6" width="2" height="1"/>
	<rect x="3" y="5" class="st0" width="2" height="2"/>
	<rect x="4" y="7" class="st0" width="1" height="3"/>
	<rect x="5" y="9" class="st0" width="1" height="1"/>
	<rect x="5" y="5" class="st0" width="1" height="1"/>
	<rect x="4" y="2" class="st0" width="3" height="3"/>
	<rect x="15" y="4" class="st0" width="1" height="2"/>
	<rect x="7" y="2" class="st0" width="9" height="2"/>
	<rect x="5" y="10" class="st1" width="4" height="10"/>
	<rect x="11" y="7" class="st1" width="1" height="2"/>
	<rect x="9" y="9" class="st1" width="3" height="1"/>
	<rect x="10" y="11" class="st1" width="3" height="1"/>
	<rect x="6" y="9" class="st1" width="3" height="1"/>
	<rect x="9" y="10" class="st1" width="2" height="1"/>
	<rect x="11" y="10" class="st2" width="1" height="1"/>
	<rect x="4" y="10" class="st2" width="1" height="1"/>
	<rect x="3" y="7" class="st2" width="1" height="4"/>
	<rect x="12" y="7" class="st2" width="1" height="4"/>
	<rect x="9" y="12" class="st3" width="4" height="1"/>
	<rect x="9" y="11" class="st3" width="1" height="1"/>
	<rect x="13" y="9" class="st1" width="2" height="4"/>
	<rect x="15" y="9" class="st1" width="1" height="2"/>
	<rect x="7" y="4" class="st1" width="8" height="2"/>
	<rect x="9" y="13" class="st1" width="3" height="7"/>
	<rect x="5" y="7" class="st1" width="3" height="2"/>
	<rect x="12" y="13" class="st1" width="2" height="2"/>
	<rect x="14" y="13" class="st1" width="1" height="1"/>
	<rect x="12" y="15" class="st1" width="1" height="1"/>
	<rect x="6" y="5" class="st1" width="1" height="1"/>
	<rect class="st4" width="3" height="20"/>
	<rect x="3" class="st4" width="17" height="2"/>
	<rect x="3" y="2" class="st4" width="0" height="3"/>
	<rect x="3" y="2" class="st4" width="1" height="3"/>
	<rect x="3" y="11" class="st4" width="1" height="9"/>
	<rect x="16" y="2" class="st4" width="4" height="7"/>
	<rect x="17" y="9" class="st4" width="3" height="11"/>
	<rect x="16" y="11" class="st4" width="1" height="9"/>
	<rect x="13" y="17" class="st4" width="3" height="3"/>
	<rect x="14" y="16" class="st4" width="2" height="1"/>
	<rect x="15" y="15" class="st4" width="1" height="1"/>
</g>
</svg>
